<svg xmlns="http://www.w3.org/2000/svg"
shape-rendering="geometricPrecision"
width="4000" height="4000" viewBox="0 0 1024 1024">
  <metadata>null</metadata>

<path d="
M 46.224 662.298
C 68.642 661.953 91.081 662.439 113.504 662.416
C 124.391 662.405 135.279 662.4 146.166 662.509
C 150.645 662.554 155.199 662.288 159.658 662.614
C 160.04 663.163 159.902 663.91 159.911 664.577
C 159.933 666.385 159.907 668.195 159.903 670.004
C 159.893 675.004 159.883 680.006 159.94 685.005
C 159.961 686.815 159.535 689.918 160.242 691.6
C 156.491 690.466 151.39 691.338 147.496 691.352
C 137.901 691.387 128.294 691.693 118.705 691.618
C 119.254 697.227 118.803 702.954 118.959 708.584
C 119.491 727.876 119.17 747.203 119.221 766.505
C 119.245 775.196 118.913 784.002 119.536 792.669
C 108.375 792.832 96.878 793.389 85.738 792.781
C 86.129 785.395 85.795 777.9 85.794 770.502
C 85.792 752.669 85.711 734.837 85.719 717.004
C 85.724 708.568 85.349 700.011 85.76 691.59
C 72.724 691.619 59.615 691.565 46.574 691.392
C 46.201 688.635 46.418 685.777 46.407 682.996
C 46.381 676.12 46.68 669.16 46.224 662.298 Z"
opacity="1" fill="rgb(76,77,82)" fill-rule="evenodd" />
<path d="
M 181.823 662.399
C 206.878 662.32 231.943 662.362 257.002 662.288
C 264.168 662.267 271.337 662.231 278.503 662.283
C 280.338 662.297 282.175 662.309 284.01 662.273
C 284.827 662.257 286.076 662.002 286.818 662.344
C 286.667 668.556 286.787 674.785 286.779 680.999
C 286.774 684.315 286.36 687.929 286.77 691.212
C 272.539 690.789 258.237 691.173 243.997 691.19
C 234.343 691.202 224.381 690.557 214.766 691.441
C 214.472 693.802 214.897 696.499 214.913 698.905
C 214.948 703.914 214.915 708.924 215.002 713.93
C 219.958 714.649 225.492 714.036 230.507 714.043
C 241.525 714.06 252.54 713.944 263.557 713.915
C 267.708 713.904 271.857 713.852 276.006 713.822
C 277.026 713.815 279.617 713.309 280.384 713.897
C 280.125 720.081 280.303 726.313 280.341 732.502
C 280.358 735.374 280.63 738.381 280.308 741.237
C 263.764 740.628 247.053 741.192 230.499 741.391
C 226.624 741.437 222.749 741.409 218.873 741.428
C 218.082 741.432 215.158 741.181 214.715 741.772
C 215.111 749.238 215.031 756.937 214.889 764.41
C 216.89 764.79 219.419 764.373 221.499 764.378
C 226.308 764.389 231.116 764.421 235.925 764.439
C 253.242 764.503 270.687 763.751 287.991 764.344
C 287.44 769.451 287.975 774.874 288.085 779.998
C 288.176 784.258 288.017 788.541 288.139 792.791
C 266.124 792.186 244.022 792.725 221.997 792.709
C 213.497 792.703 204.997 792.701 196.497 792.713
C 191.7 792.72 186.688 792.37 181.924 792.979
C 181.426 768.617 182.067 744.151 182.038 719.779
C 182.016 700.683 181.215 681.487 181.823 662.399 Z"
opacity="1" fill="rgb(75,76,81)" fill-rule="evenodd" />
<path d="
M 271.092 327.638
C 272.368 321.295 274.61 315.04 276.994 309.028
C 285.84 286.716 300.975 267.398 323.434 257.726
C 338.658 251.171 355.473 249.434 370.744 243.052
C 379.69 239.313 388.079 233.153 394.633 226.035
C 402.661 217.317 408.696 207.22 414.457 196.925
C 418.773 189.212 422.936 181.498 426.65 173.471
C 429.38 167.571 431.977 161.614 434.591 155.662
C 435.979 152.502 437.052 149.136 440.165 147.251
C 440.711 167.767 440.772 188.367 439.849 208.863
C 439.54 215.745 439.715 222.791 438.977 229.634
C 438.235 236.521 438.435 243.809 438.287 250.741
C 438.231 253.373 438.985 257.272 438.064 259.742
C 437.236 261.959 434.663 264.023 433.156 265.815
C 429.999 269.569 426.758 273.281 423.864 277.244
C 413.851 290.953 404.564 304.905 395.912 319.521
C 382.643 341.938 372.932 366.405 365.504 391.304
C 361.533 404.615 358.166 418.376 356.345 432.163
C 354.975 442.527 355.23 452.772 354.842 463.181
C 354.133 462.759 353.71 461.86 353.257 461.192
C 351.86 459.133 350.701 456.955 349.57 454.741
C 345.457 446.693 342.236 437.93 340.173 429.133
C 333.216 399.463 337.352 369.682 341.982 340.039
C 343.459 330.589 344.665 321.093 344.385 311.506
C 344.211 305.543 343.183 299.068 339.335 294.286
C 334.893 288.765 328.188 287.609 321.484 288.059
C 308.116 288.956 296.077 297.282 286.853 306.506
C 282.353 311.005 278.994 316.15 275.369 321.323
C 274.179 323.022 273.343 324.892 272.36 326.706
C 272.156 327.081 271.049 329.46 270.966 329.26
C 270.988 328.717 271.049 328.18 271.092 327.638 Z"
opacity="1" fill="rgb(254,207,2)" fill-rule="evenodd" />
<path d="
M 300.801 792.699
C 304.764 784.1 308.147 775.224 311.95 766.546
C 321.542 744.659 331.218 722.824 340.586 700.84
C 344.346 692.019 348.391 683.325 352.198 674.523
C 353.307 671.96 354.492 669.426 355.555 666.845
C 356.147 665.409 356.732 663.523 357.878 662.457
C 362.981 661.817 368.368 662.249 373.505 662.254
C 379.122 662.26 384.903 661.858 390.5 662.287
C 394.308 670.192 397.457 678.408 401.109 686.383
C 411.269 708.572 420.768 731.053 430.601 753.386
C 434.781 762.878 438.894 772.41 443.103 781.885
C 444.281 784.538 445.39 787.211 446.703 789.803
C 447.128 790.642 448.247 792.281 448.297 793.205
C 442.043 793.313 435.764 792.897 429.501 792.905
C 423.79 792.913 417.897 793.351 412.207 792.905
C 409.03 785.603 406.151 777.795 403.552 770.262
C 388.743 770.22 373.936 770.468 359.132 770.552
C 355.661 770.572 352.139 770.815 348.675 770.545
C 347.314 770.439 344.941 769.966 343.903 770.922
C 342.671 776.233 339.938 781.626 337.794 786.64
C 337.009 788.475 336.339 791.449 334.988 792.908
C 323.642 793.392 312.173 792.849 300.823 793.016
C 300.816 792.91 300.808 792.804 300.801 792.699 Z
M 355.766 743.248
C 355.769 743.336 355.773 743.424 355.777 743.512
C 362.515 743.227 369.258 743.288 376.006 743.134
C 381.293 743.014 387.047 742.517 392.291 743.272
C 389.619 739.944 388.475 734.841 386.966 730.915
C 384.092 723.439 381.251 715.954 378.345 708.49
C 376.982 704.989 376.03 700.794 374.127 697.581
C 372.384 704.677 369.068 711.673 366.282 718.413
C 362.873 726.663 359.852 735.317 355.766 743.248 Z"
opacity="1" fill="rgb(74,75,80)" fill-rule="evenodd" />
<path d="
M 329.945 199.594
C 330.382 195.488 331.827 191.477 333.72 187.826
C 341.243 173.319 360.592 167.548 375.004 175.593
C 386.07 181.77 392.353 193.865 391.106 206.476
C 390.724 210.342 389.46 213.787 387.9 217.308
C 385.772 222.111 381.481 226.017 376.974 228.54
C 359.427 238.362 335.62 229.628 330.758 209.454
C 329.988 206.263 329.596 202.873 329.945 199.594 Z"
opacity="1" fill="rgb(254,207,1)" fill-rule="evenodd" />
<path d="
M 351.456 516.202
C 353.158 510.465 354.125 504.341 355.394 498.486
C 357.169 490.295 359.267 482.165 361.302 474.036
C 375.463 417.48 389.828 359.967 420.265 309.569
C 428.549 295.851 437.801 282.931 447.758 270.387
C 451 266.304 454.511 262.503 458.017 258.645
C 459.888 256.587 461.748 254.027 464.123 252.533
C 464.483 254.018 463.048 255.992 462.591 257.389
C 461.152 261.788 459.743 266.186 458.344 270.601
C 453.797 284.945 450.293 299.627 447.513 314.408
C 439.446 357.289 436.798 403.262 456.878 443.454
C 463.643 456.995 472.944 468.862 483.456 479.667
C 499.254 495.905 520.456 508.889 541.904 516.082
C 548.771 518.384 555.735 519.991 562.803 521.521
C 573.358 523.807 584.237 524.236 595.006 524.247
C 597.798 524.25 600.594 524.207 603.385 524.141
C 604.182 524.122 605.834 523.806 606.358 524.434
C 605.698 525.07 604.669 525.295 603.877 525.734
C 602.115 526.71 600.346 527.677 598.59 528.666
C 590.983 532.949 582.855 536.295 574.533 538.896
C 557.603 544.188 539.754 546.34 522.096 544.048
C 502.309 541.481 482.785 532.74 466.728 521.058
C 458.401 515 450.404 508.594 442.874 501.566
C 433.743 493.045 423.637 483.467 410.926 480.996
C 393.542 477.616 377.645 488.795 365.9 500.388
C 362.122 504.118 358.516 508.064 355.234 512.243
C 354.468 513.219 352.634 516.732 351.349 516.792
C 351.385 516.595 351.42 516.398 351.456 516.202 Z"
opacity="1" fill="rgb(74,74,78)" fill-rule="evenodd" />
<path d="
M 377.436 526.101
C 377.789 521.596 379.226 517.269 381.297 513.276
C 383.14 509.722 385.552 506.464 388.74 504.015
C 402.514 493.436 422.541 495.531 432.92 509.734
C 434.921 512.472 436.454 515.654 437.432 518.896
C 438.489 522.4 438.868 526.326 438.574 529.976
C 438.136 535.426 436.61 540.609 433.675 545.262
C 431.771 548.279 429.401 550.753 426.581 552.921
C 424.003 554.904 421.112 556.3 418.055 557.372
C 397.786 564.479 375.757 547.525 377.436 526.101 Z"
opacity="1" fill="rgb(73,75,79)" fill-rule="evenodd" />
<path d="
M 464.798 662.235
C 478.429 661.692 492.408 661.881 506.046 662.228
C 508.071 667.814 510.784 673.244 513.234 678.653
C 518.096 689.39 522.71 700.279 527.364 711.112
C 530.453 718.301 533.366 725.586 536.551 732.731
C 537.612 735.111 538.26 737.889 539.561 740.127
C 540.957 738.187 541.663 734.957 542.547 732.702
C 544.441 727.869 546.551 723.14 548.512 718.337
C 553.546 706.006 558.882 693.82 564.273 681.642
C 567.047 675.375 569.254 668.572 572.592 662.585
C 573.468 662.065 574.981 662.316 576.001 662.294
C 578.834 662.231 581.672 662.252 584.506 662.254
C 594.346 662.264 604.391 662.852 614.209 662.209
C 613.696 705.724 614.059 749.339 614.394 792.859
C 603.819 793.494 593.157 792.115 582.562 792.894
C 582.303 790.496 582.644 787.925 582.653 785.506
C 582.673 780.505 582.602 775.502 582.592 770.501
C 582.564 756.256 582.314 742.001 582.347 727.764
C 582.359 722.81 582.538 717.864 582.545 712.912
C 582.546 711.705 582.766 710.273 582.587 709.1
C 582.435 708.108 582.653 708.169 582.167 708.165
C 579.157 714.687 577.228 721.674 574.308 728.252
C 568.629 741.043 562.981 753.82 557.675 766.774
C 555.565 771.926 553.021 776.979 551.134 782.215
C 549.952 782.931 546.65 782.353 545.256 782.333
C 541.246 782.275 537.227 782.204 533.217 782.277
C 531.643 782.306 529.133 782.846 527.678 782.256
C 524.324 775.596 521.635 768.544 518.66 761.711
C 514.593 752.37 510.369 743.093 506.385 733.72
C 504.058 728.247 501.768 722.745 499.552 717.227
C 498.806 715.369 497.895 713.459 497.404 711.519
C 497.28 711.028 497.069 709.331 496.708 709.115
C 496.482 708.981 496.553 709.617 496.476 709.868
C 495.938 715.17 496.305 720.67 496.321 725.995
C 496.345 734.33 496.258 742.665 496.265 751
C 496.272 759.832 496.326 768.664 496.306 777.496
C 496.295 782.553 495.936 787.792 496.368 792.828
C 486.196 792.424 475.516 792.105 465.364 792.938
C 464.812 792.006 465.066 790.557 465.081 789.488
C 465.111 787.246 465.066 785.001 465.065 782.758
C 465.06 774.35 464.88 765.919 464.852 757.501
C 464.784 736.835 464.736 716.17 464.807 695.505
C 464.845 684.521 465.723 673.182 464.798 662.235 Z"
opacity="1" fill="rgb(73,74,80)" fill-rule="evenodd" />
<path d="
M 473.346 432.257
C 500.462 445.376 531.18 444.403 559.503 436.027
C 604.153 422.822 643.136 388.707 664.539 347.641
C 674.224 329.058 679.72 309.054 682.632 288.395
C 682.936 287.585 683.751 289.737 684.075 290.349
C 685.222 292.523 686.024 294.987 686.907 297.28
C 689.444 303.873 691.735 310.493 693.332 317.383
C 698.208 338.43 696.224 359.696 688.501 379.752
C 681.855 397.009 670.505 413.093 657.59 426.255
C 646.134 437.931 631.317 448.931 627.217 465.622
C 626.464 468.689 626.214 471.856 626.16 475.006
C 625.909 489.632 631.488 503.315 639.498 515.332
C 642.299 519.533 645.138 523.759 648.324 527.68
C 649.326 528.912 652.078 531.159 652.27 532.758
C 650.959 532.764 649.26 531.337 648.074 530.795
C 644.334 529.085 640.614 527.335 636.885 525.601
C 625.785 520.441 614.456 515.785 603.035 511.386
C 591.034 506.763 578.896 502.394 566.651 498.46
C 542.938 490.843 519.411 482.741 500.127 466.342
C 493.438 460.654 487.116 454.029 482.025 446.859
C 478.754 442.251 476.181 437.137 473.346 432.257 Z"
opacity="1" fill="rgb(254,206,2)" fill-rule="evenodd" />
<path d="
M 563.799 416.713
C 568.182 411.266 571.096 404.529 573.159 397.897
C 577.013 385.51 579.15 372.802 580.828 359.955
C 584.086 335.004 586.371 310.014 588.898 284.985
C 589.685 277.194 590.211 269.378 590.987 261.585
C 591.595 255.469 592.55 249.266 592.683 243.121
C 592.729 242.95 592.645 242.63 592.82 242.608
C 593.241 242.556 593.492 243.128 593.839 243.373
C 595.12 244.274 596.433 245.114 597.744 245.973
C 601.072 248.154 604.736 249.949 608.401 251.486
C 619.103 255.976 630.935 255.606 641.355 250.531
C 652.481 245.113 660.722 236.4 668.499 227.003
C 679.219 214.051 687.991 199.6 696.592 185.202
C 698.863 181.4 700.926 177.485 703.128 173.646
C 703.939 172.232 704.47 170.59 705.403 169.265
C 706.504 168.853 705.99 170.503 705.83 171.219
C 705.245 173.844 704.746 176.502 704.336 179.167
C 703.339 185.638 702.669 192.133 701.459 198.577
C 697.787 218.13 693.107 237.403 686.386 256.15
C 676.79 282.913 664.997 308.454 650.824 333.126
C 639.127 353.488 625.676 373.483 608.056 389.203
C 598.273 397.931 587.802 405.697 575.909 411.365
C 573.125 412.692 570.321 413.951 567.515 415.231
C 566.418 415.732 565.041 416.771 563.799 416.713 Z"
opacity="1" fill="rgb(70,71,75)" fill-rule="evenodd" />
<path d="
M 602.931 197.59
C 603.543 193.386 605.124 189.284 607.438 185.737
C 609.912 181.947 613.108 178.584 616.976 176.198
C 634.547 165.362 658.624 174.64 663.784 194.778
C 664.732 198.476 665.086 202.625 664.557 206.413
C 661.487 228.422 636.241 240.058 617.308 228.925
C 613.954 226.953 611.276 224.363 608.924 221.284
C 606.512 218.127 604.714 214.402 603.712 210.558
C 602.616 206.354 602.304 201.901 602.931 197.59 Z"
opacity="1" fill="rgb(71,73,78)" fill-rule="evenodd" />
<path d="
M 639.473 471.112
C 639.717 466.587 640.731 461.962 642.851 457.93
C 644.861 454.107 647.538 450.59 650.969 447.928
C 663.199 438.437 681.625 440.718 692.19 451.488
C 698.236 457.651 701.208 466.518 700.727 475.042
C 700.504 479.004 699.253 483.138 697.414 486.647
C 695.742 489.839 693.765 492.815 691.016 495.18
C 674.556 509.348 648.799 502.48 641.32 482.204
C 640.037 478.724 639.272 474.832 639.473 471.112 Z"
opacity="1" fill="rgb(254,206,2)" fill-rule="evenodd" />
<path d="
M 699.931 662.331
C 703.874 661.535 708.472 662.206 712.5 662.194
C 719.562 662.174 726.86 661.658 733.896 662.171
C 734.207 669.056 733.902 676.073 733.936 682.995
C 734 695.829 734.202 708.666 734.258 721.502
C 734.305 732.188 733.313 744.336 739.165 753.852
C 749.823 771.183 778.697 769.002 787.102 750.732
C 791.436 741.31 790.753 729.648 790.816 719.503
C 790.935 700.497 790.315 681.465 790.529 662.486
C 793.685 661.427 798.176 662.138 801.5 662.133
C 809.074 662.122 816.649 662.083 824.222 662.126
C 824.501 662.819 824.337 663.806 824.319 664.549
C 824.266 666.697 824.265 668.849 824.265 670.998
C 824.267 677.999 824.314 684.999 824.306 692
C 824.292 703.167 824.456 714.335 824.255 725.502
C 823.933 743.316 822.259 761.084 810.791 775.558
C 793.817 796.983 760.363 800.821 735.878 791.586
C 727.176 788.304 718.856 782.974 712.951 775.669
C 705.302 766.206 701.605 754.993 700.486 742.976
C 699.842 736.056 700.255 728.955 700.254 722.012
C 700.249 702.136 700.427 682.195 699.931 662.331 Z"
opacity="1" fill="rgb(254,209,3)" fill-rule="evenodd" />
<path d="
M 855.983 792.136
C 856.781 780.187 856.157 767.983 856.145 756.005
C 856.125 735.836 856.125 715.668 856.125 695.499
C 856.125 684.461 855.825 673.369 856.189 662.338
C 860.85 661.77 865.793 662.074 870.492 662.032
C 878.994 661.955 887.49 661.829 895.995 661.816
C 913.856 661.787 933.39 659.973 949.349 669.649
C 977.506 686.72 978.195 734.311 949.652 751.525
C 936.617 759.386 922.203 759.669 907.471 759.593
C 902.003 759.565 895.464 758.4 890.109 759.596
C 889.696 766.185 889.807 772.891 889.777 779.5
C 889.757 783.929 889.425 788.512 889.851 792.923
C 887.776 793.04 885.599 792.712 883.51 792.687
C 878.508 792.627 873.504 792.697 868.502 792.736
C 864.629 792.767 859.74 793.579 855.982 792.73
C 855.982 792.532 855.983 792.334 855.983 792.136 Z
M 890.032 692.624
C 890.285 702.397 890.189 712.224 890.148 722.004
C 890.138 724.333 890.004 726.663 889.851 728.986
C 889.808 729.634 889.416 730.98 889.931 731.369
C 897.894 730.931 905.873 731.469 913.84 731.327
C 918.35 731.246 923.104 731.371 927.258 729.33
C 940.133 723.005 940.374 702.585 929.042 694.746
C 921.891 689.798 912.364 691.347 904.119 691.37
C 900.786 691.379 897.453 691.546 894.127 691.554
C 892.891 691.557 891.026 691.337 890.051 692.091
C 890.045 692.269 890.039 692.446 890.032 692.624 Z"
opacity="1" fill="rgb(254,209,3)" fill-rule="evenodd" />

</svg>